<svg width="726" height="347" viewBox="0 0 726 347" fill="none" xmlns="http://www.w3.org/2000/svg">
<path d="M153.813 342.171C100.258 320.091 103.103 230.991 186.664 203.631L200.097 199.233C109.684 102.281 63.162 175.038 101.586 189.288C106.565 191.135 111.917 191.677 117.202 192.205C112.168 198.115 107.063 204.091 100.729 208.58C70.353 230.107 37.564 193.221 43.388 162.642C49.185 132.204 82.524 120.177 110.055 122.259C110.055 122.259 128.068 123.621 128.073 123.622C127.965 123.614 123.64 100.653 123.314 98.646C110.394 19.026 194.418 -26.432 246.064 17.802C278.665 45.724 265.841 84.614 240.846 90.43C229.599 93.047 204.311 90.363 206.781 78.74C207.435 75.664 210.214 73.601 212.234 71.191C220.828 60.938 214.518 46.165 203.001 41.591C173.647 29.931 102.257 60.92 159.242 137.069C171.574 153.546 183.057 160.759 191.746 166.999C199.247 144.272 212.331 131.657 214.541 131.657C215.556 131.657 217.834 140.267 219.603 150.791C222.288 166.77 224.288 171.552 231.732 179.791C238.876 187.698 266.67 207.352 270.676 207.329C271.184 207.326 271.604 194.556 271.604 178.952C271.604 161.546 271.968 145.526 281.716 130.511C312.967 82.373 373.182 71.813 411.163 101.519C437.42 122.056 443.143 151.169 459.246 152.482C476.41 153.881 496.385 124.666 483.142 101.269C516.671 109.561 518.518 165.789 464.512 181.958C474.181 204.465 458.555 229.978 434.107 231.587C443.014 207.195 443.61 167.556 421.981 189.965C400.429 212.294 364.537 213.071 345.759 195.146C328.143 178.329 332.609 151.885 351.137 144.523C360.515 140.797 372.427 143.909 378.019 152.308C383.611 160.707 381.391 173.616 372.82 178.941C393.313 193.192 426.014 168.481 411.017 134.818C401.923 114.406 382.272 103.907 360.581 103.907C273.921 103.907 251.93 262.829 405.285 262.829C551.12 262.829 605.329 130.575 685.428 155.769C725.53 168.383 737.958 218.299 710.831 249.022C697.122 264.549 670.204 275.152 651.041 263.441C628.31 249.55 634.424 217.486 656.701 213.727C673.254 210.934 671.131 226.52 672.264 230.303C676.463 244.315 703.422 242.554 703.471 216.865C703.493 205.175 698.556 193.476 690.103 185.504C648.223 146.007 611.008 213.666 499.826 261.101C442.693 285.477 381.785 293.795 335.419 283.555C292.71 274.123 296.974 273.49 287.532 290.665C282.982 298.941 278.479 305.713 277.526 305.713C276.568 305.713 273.284 301.658 270.221 296.702C263.891 286.458 264.972 285.702 269.606 256.925L258.483 245.802C219.806 207.125 170.159 219.968 148.745 251.875C128.44 282.13 144.226 319.466 173.918 324.451C193.918 327.809 201.969 312.498 197.351 303.667C193.707 296.699 183.851 294.86 180.166 287.914C177.43 282.757 179.066 276.164 182.598 271.515C197.077 252.46 231.431 262.909 232.878 293.705C234.531 328.844 191.355 357.649 153.813 342.171ZM33.253 92.371C30.388 89.716 28.757 80.893 27.182 77.173C17.325 53.905 9.838 41.79 0 23.183C39.497 23.247 42.304 27.728 76.089 33.552C85.208 35.124 86.078 52.256 88.248 59.964C89.549 64.586 100.435 92.996 97.323 95.659C95.635 97.104 83.882 94.308 81.162 94.271C54.937 93.916 38.445 97.183 33.253 92.371Z" fill="black"/>
</svg>
