<svg width="723" height="346" viewBox="0 0 723 346" fill="none" xmlns="http://www.w3.org/2000/svg">
<path d="M531.664 264.226C494.887 251.906 470.12 307.466 514.643 335.206C544.14 353.585 584.897 347.519 601.115 315.072C610.686 295.924 610.924 279.166 601.902 259.46C569.259 188.159 507.294 216.315 544.709 181.292C560.55 166.464 586.234 151.849 601.288 149.096C619.109 145.838 637.694 157.726 637.877 172.5C638.04 185.656 619.306 189.246 606.59 192.683L618.345 203.789C628.037 212.947 631.785 214.893 639.706 214.854C651.744 214.802 667.66 205.966 674.802 195.368C698.866 159.658 663.801 111.848 605.498 122.269C595.748 124.011 594.666 123.747 596.113 119.975C597.013 117.63 599.015 107.204 600.561 96.806C617.262 -15.484 476.174 -27.11 458.712 50.314C454.61 68.504 471.14 91.29 488.438 91.29C494.407 91.29 518.387 84.81 521.435 82.373C521.861 82.033 518.622 76.666 514.238 70.446C507.405 60.752 506.687 58.352 509.21 53.637C513.774 45.109 526.973 38.336 539.05 38.326C562.974 38.305 587.509 60.6 587.509 82.36C587.509 92.655 577.8 120.121 569.996 131.903C563.547 141.638 537.117 164.464 532.326 164.435C531.46 164.43 528.574 159.13 525.911 152.657C520.829 140.303 506.804 119.042 506.773 142.372C506.74 167.917 499.811 178.122 466.724 201.362C452.499 211.354 450.826 211.992 452.349 206.845C453.297 203.641 454.743 191.633 455.563 180.159C457.013 159.858 456.805 158.794 447.788 140.55C412.851 69.86 345.776 79.497 318.145 97.771C302.096 108.385 297.715 116.058 276.963 149.911L262.791 148.736C250.912 147.751 247.67 146.376 242.758 140.237C233.542 128.719 237.436 115.869 241.341 99.057L231.579 107.156C207.568 127.076 214.959 159.579 247.217 175.925L259.574 182.187V196.719C259.574 205.826 261.049 213.356 263.525 216.891C267.435 222.474 286.819 233.899 288.881 231.837C289.469 231.249 288.717 225.02 287.211 217.994C285.705 210.969 284.83 200.871 285.267 195.554C285.978 186.909 286.728 185.963 292.364 186.599C295.83 186.99 302.975 190.773 308.241 195.005C342.362 222.425 397.111 201.429 390.963 165.69C387.118 143.337 357.052 134.756 345.443 149.194C335.739 161.262 350.416 167.386 350.53 174.505C350.734 187.226 320.76 188.785 312.854 163.672C301.32 127.036 339.946 90.629 389.24 109.073C433.048 125.465 446.32 190.829 413.427 228.198C384.707 260.825 313.883 283.288 221.736 238.632C127.138 192.788 116.491 159.154 67.72 153.111C-8.41303 143.675 -27.591 252.877 49.124 267.819C63.052 270.532 79.554 265.457 85.584 252.613C95.889 230.663 68.7509 207.426 62.0039 208.068C53.0209 208.922 59.924 238.091 40.529 238.931C27.189 239.509 12.8219 217.43 28.5979 193.35C59.5379 146.126 107.587 192.549 132.185 209.062C229.705 274.526 310.5 298.058 387.197 283.333C426.878 275.715 427.309 275.77 436.114 289.655C440.193 296.087 444.007 302.614 444.592 304.16C445.232 305.854 447.994 304.72 451.544 301.306C458.249 294.861 457.375 293.008 456.47 252.807C484.07 229.839 488.392 223.826 519.398 223.826C543.475 223.826 551.73 226.789 566.454 240.714C591.155 264.076 590.364 292.269 577.406 307.696C569.958 316.562 547.163 332.222 535.99 323.3C532.561 320.562 526.332 311.777 525.835 307.221C524.892 298.582 545.754 289.525 551.522 285.586C549.01 275.766 541.275 267.446 531.664 264.226Z" fill="black"/>
<path d="M632.738 74.447C624.01 94.958 623.812 93.002 629.759 94.726V94.728C635.332 96.342 644.971 94.597 695.549 90.58C701.113 59.79 716.122 48.47 721.262 30.546C723.329 23.34 723.173 23.185 713.842 23.185C700.057 23.185 659.768 33.18 651.501 33.235C643.094 33.297 646.417 42.303 632.738 74.447Z" fill="black"/>
</svg>
